<svg xmlns="http://www.w3.org/2000/svg" xmlns:xlink="http://www.w3.org/1999/xlink" width="320.59" height="517.321" class="typst-doc" viewBox="0 0 240.442 387.991"><g class="typst-group"><g class="typst-text" transform="matrix(1 0 0 -1 11 20.933)"><use xlink:href="#a"/><use xlink:href="#b" x="11.302"/><use xlink:href="#c" x="19.092"/><use xlink:href="#d" x="24.604"/></g></g><g class="typst-group"><g class="typst-text" transform="matrix(1 0 0 -1 11 36.885)"><use xlink:href="#e"/><use xlink:href="#f" x="10.071"/><use xlink:href="#g" x="10.071"/><use xlink:href="#h" x="12.891"/></g><g class="typst-text" transform="matrix(1 0 0 -1 33.156 36.885)"><use xlink:href="#i" x="2.75"/><use xlink:href="#j" x="7.863"/></g><g class="typst-text" transform="matrix(1 0 0 -1 48.882 36.885)"><use xlink:href="#k"/><use xlink:href="#e" x="8.459"/><use xlink:href="#l" x="18.53"/></g><g class="typst-text" transform="matrix(1 0 0 -1 80.292 36.885)"><use xlink:href="#m" x="2.75"/><use xlink:href="#n" x="7.863"/><use xlink:href="#m" x="12.977"/><use xlink:href="#o" x="18.09"/></g><g class="typst-text" transform="matrix(1 0 0 -1 11 51.276)"><use xlink:href="#p"/><use xlink:href="#q" x="6.73"/><use xlink:href="#r" x="10.984"/><use xlink:href="#s" x="16.559"/><use xlink:href="#t" x="22.124"/><use xlink:href="#u" x="27.146"/><use xlink:href="#i" x="35.396"/><use xlink:href="#j" x="40.509"/><use xlink:href="#v" x="48.372"/><use xlink:href="#w" x="57.6"/><use xlink:href="#x" x="62.514"/><use xlink:href="#m" x="68.245"/><use xlink:href="#n" x="73.358"/><use xlink:href="#m" x="78.472"/><use xlink:href="#o" x="83.585"/></g><g class="typst-text" transform="matrix(1 0 0 -1 11 65.666)"><use xlink:href="#m"/><use xlink:href="#n" x="5.113"/><use xlink:href="#m" x="10.227"/><use xlink:href="#o" x="15.34"/><use xlink:href="#y" x="23.203"/><use xlink:href="#s" x="29.165"/><use xlink:href="#z" x="34.729"/><use xlink:href="#w" x="42.856"/><use xlink:href="#y" x="47.771"/><use xlink:href="#y" x="53.732"/><use xlink:href="#u" x="59.694"/><use xlink:href="#A" x="65.194"/><use xlink:href="#B" x="71.033"/><use xlink:href="#i" x="79.17"/><use xlink:href="#j" x="84.283"/><use xlink:href="#C" x="89.396"/><use xlink:href="#D" x="94.563"/><use xlink:href="#x" x="98.85"/><use xlink:href="#y" x="101.831"/><use xlink:href="#u" x="107.792"/><use xlink:href="#E" x="113.292"/><use xlink:href="#u" x="119.206"/><use xlink:href="#x" x="124.706"/><use xlink:href="#F" x="127.687"/><use xlink:href="#E" x="132.349"/><use xlink:href="#t" x="138.263"/><use xlink:href="#G" x="143.285"/></g></g><g class="typst-group"><g class="typst-text" transform="matrix(1 0 0 -1 11 95.4)"><use xlink:href="#H"/><use xlink:href="#I" x="10.039"/><use xlink:href="#J" x="14.994"/><use xlink:href="#d" x="28.928"/></g></g><g class="typst-text" transform="matrix(1 0 0 -1 11 110.89)"><use xlink:href="#j"/><use xlink:href="#K" x="5.113"/><use xlink:href="#L" x="10.227"/><use xlink:href="#n" x="12.644"/><use xlink:href="#m" x="17.757"/><use xlink:href="#L" x="22.87"/><use xlink:href="#m" x="25.287"/><use xlink:href="#i" x="30.4"/></g><g class="typst-text" transform="matrix(1 0 0 -1 11 125.28)"><use xlink:href="#M"/><use xlink:href="#N" x="5.113"/><use xlink:href="#n" x="7.708"/><use xlink:href="#m" x="12.821"/><use xlink:href="#N" x="17.934"/><use xlink:href="#m" x="20.528"/><use xlink:href="#i" x="25.642"/><use xlink:href="#O" x="32.13"/><use xlink:href="#v" x="38.076"/></g><g class="typst-text" transform="matrix(1 0 0 -1 11 139.67)"><use xlink:href="#j"/><use xlink:href="#K" x="5.113"/><use xlink:href="#N" x="10.227"/><use xlink:href="#n" x="12.821"/><use xlink:href="#m" x="17.934"/><use xlink:href="#N" x="23.047"/><use xlink:href="#m" x="25.642"/><use xlink:href="#i" x="30.755"/></g><g class="typst-group"><g class="typst-text" transform="matrix(1 0 0 -1 11 169.403)"><use xlink:href="#a"/><use xlink:href="#b" x="11.302"/><use xlink:href="#c" x="19.092"/><use xlink:href="#d" x="24.604"/><use xlink:href="#b" x="35.981"/><use xlink:href="#P" x="43.771"/><use xlink:href="#Q" x="53.253"/><use xlink:href="#H" x="65.736"/><use xlink:href="#I" x="75.774"/><use xlink:href="#J" x="80.73"/><use xlink:href="#d" x="94.663"/></g></g><g class="typst-text" transform="matrix(1 0 0 -1 11 184.893)"><use xlink:href="#R"/><use xlink:href="#S" x="6.445"/><use xlink:href="#T" x="11.736"/><use xlink:href="#U" x="16.629"/><use xlink:href="#V" x="23.074"/><use xlink:href="#W" x="29.52"/><use xlink:href="#X" x="35.863"/><use xlink:href="#C" x="40.885"/><use xlink:href="#i" x="46.052"/><use xlink:href="#j" x="51.165"/><use xlink:href="#Y" x="59.028"/><use xlink:href="#X" x="66.505"/><use xlink:href="#S" x="71.527"/><use xlink:href="#m" x="79.567"/><use xlink:href="#n" x="84.681"/><use xlink:href="#m" x="89.794"/><use xlink:href="#o" x="94.907"/><use xlink:href="#Z" x="101.396"/><use xlink:href="#L" x="105.966"/><use xlink:href="#C" x="108.383"/><use xlink:href="#j" x="113.55"/><use xlink:href="#K" x="118.664"/><use xlink:href="#N" x="123.777"/><use xlink:href="#n" x="126.371"/><use xlink:href="#m" x="131.484"/></g><g class="typst-text" transform="matrix(1 0 0 -1 11 199.284)"><use xlink:href="#aa"/><use xlink:href="#q" x="5.333"/><use xlink:href="#x" x="9.421"/><use xlink:href="#s" x="12.402"/><use xlink:href="#t" x="17.966"/><use xlink:href="#r" x="22.988"/><use xlink:href="#C" x="28"/><use xlink:href="#v" x="33.167"/><use xlink:href="#t" x="42.394"/><use xlink:href="#r" x="47.416"/><use xlink:href="#i" x="55.827"/><use xlink:href="#j" x="60.94"/><use xlink:href="#C" x="66.054"/><use xlink:href="#m" x="71.221"/><use xlink:href="#n" x="76.334"/><use xlink:href="#m" x="81.447"/><use xlink:href="#o" x="86.561"/><use xlink:href="#C" x="91.674"/><use xlink:href="#M" x="96.841"/><use xlink:href="#N" x="101.954"/><use xlink:href="#n" x="104.548"/><use xlink:href="#m" x="109.662"/><use xlink:href="#O" x="116.15"/><use xlink:href="#v" x="122.096"/></g><g class="typst-text" transform="matrix(1 0 0 -1 11 213.953)"><use xlink:href="#m"/><use xlink:href="#n" x="5.113"/><use xlink:href="#m" x="10.227"/><use xlink:href="#o" x="15.34"/></g><g class="typst-group"><use xlink:href="#ab" x="2.75" class="typst-text" transform="matrix(1 0 0 -1 31.453 213.953)"/><use xlink:href="#ac" class="typst-text" transform="matrix(1 0 0 -1 47.953 213.953)"/><use xlink:href="#ad" x="2.75" class="typst-text" transform="matrix(1 0 0 -1 53.066 213.953)"/><g class="typst-text" transform="matrix(1 0 0 -1 69.566 213.953)"><use xlink:href="#i"/><use xlink:href="#j" x="5.113"/></g><g class="typst-text" transform="matrix(1 0 0 -1 79.793 213.953)"><use xlink:href="#ae" x="2.75"/><use xlink:href="#af" x="13.75"/><use xlink:href="#ag" x="24.75"/><use xlink:href="#ah" x="35.75"/></g><g class="typst-text" transform="matrix(1 0 0 -1 126.543 213.953)"><use xlink:href="#j" x="2.75"/><use xlink:href="#K" x="7.863"/><use xlink:href="#N" x="12.977"/><use xlink:href="#n" x="15.571"/><use xlink:href="#m" x="20.684"/></g></g><g class="typst-group"><use xlink:href="#ai" class="typst-text" transform="matrix(1 0 0 -1 11 228.983)"/><use xlink:href="#aj" class="typst-text" transform="matrix(1 0 0 -1 17.467 228.983)"/><use xlink:href="#N" class="typst-text" transform="matrix(1 0 0 -1 23.251 228.983)"/><g class="typst-text" transform="matrix(1 0 0 -1 25.846 228.983)"><use xlink:href="#ak"/><use xlink:href="#al" x="5.785"/></g><use xlink:href="#am" class="typst-text" transform="matrix(1 0 0 -1 40.165 228.983)"/><g class="typst-text" transform="matrix(1 0 0 -1 43.672 228.983)"><use xlink:href="#al"/><use xlink:href="#ak" x="5.785"/><use xlink:href="#al" x="11.569"/><use xlink:href="#an" x="17.354"/></g><g class="typst-text" transform="matrix(1 0 0 -1 69.561 228.983)"><use xlink:href="#ao"/><use xlink:href="#ap" x="4.753"/><use xlink:href="#aq" x="7.439"/><use xlink:href="#ar" x="9.963"/></g><g class="typst-text" transform="matrix(1 0 0 -1 86.609 228.983)"><use xlink:href="#as"/><use xlink:href="#at" x="5.785"/></g><g class="typst-text" transform="matrix(1 0 0 -1 100.928 228.983)"><use xlink:href="#am"/><use xlink:href="#au" x="3.507"/><use xlink:href="#av" x="7.632"/><use xlink:href="#ar" x="11.967"/><use xlink:href="#aw" x="16.301"/><use xlink:href="#ax" x="22.129"/><use xlink:href="#ay" x="24.406"/></g><g class="typst-text" transform="matrix(1 0 0 -1 11 243.373)"><use xlink:href="#az"/><use xlink:href="#w" x="5.779"/><use xlink:href="#q" x="10.694"/><use xlink:href="#G" x="14.781"/><use xlink:href="#t" x="17.773"/><use xlink:href="#y" x="22.795"/><use xlink:href="#aA" x="28.757"/><use xlink:href="#t" x="32.232"/><use xlink:href="#x" x="37.254"/><use xlink:href="#i" x="42.985"/><use xlink:href="#j" x="48.098"/><use xlink:href="#L" x="53.211"/><use xlink:href="#aA" x="58.378"/><use xlink:href="#aB" x="61.854"/><use xlink:href="#A" x="67.396"/><use xlink:href="#aC" x="73.235"/><use xlink:href="#aB" x="78.864"/><use xlink:href="#aC" x="84.407"/><use xlink:href="#A" x="90.036"/><use xlink:href="#A" x="95.874"/><use xlink:href="#aA" x="101.712"/><use xlink:href="#t" x="105.188"/><use xlink:href="#m" x="112.959"/><use xlink:href="#n" x="118.073"/><use xlink:href="#m" x="123.186"/><use xlink:href="#o" x="128.299"/><use xlink:href="#j" x="136.163"/><use xlink:href="#K" x="141.276"/><use xlink:href="#L" x="146.389"/><use xlink:href="#n" x="148.806"/><use xlink:href="#m" x="153.919"/></g></g><g class="typst-group"><g class="typst-text" transform="matrix(1 0 0 -1 11 273.106)"><use xlink:href="#H"/><use xlink:href="#I" x="10.039"/><use xlink:href="#J" x="14.994"/><use xlink:href="#d" x="28.928"/><use xlink:href="#aD" x="36.455"/><use xlink:href="#aE" x="43.41"/><use xlink:href="#P" x="51.892"/><use xlink:href="#d" x="61.374"/><use xlink:href="#aF" x="72.751"/><use xlink:href="#d" x="77.338"/><use xlink:href="#aG" x="84.76"/><use xlink:href="#aH" x="93.393"/><use xlink:href="#d" x="102.439"/><use xlink:href="#aI" x="109.966"/><use xlink:href="#I" x="116.553"/><use xlink:href="#J" x="121.508"/><use xlink:href="#d" x="135.442"/><use xlink:href="#P" x="142.969"/><use xlink:href="#c" x="152.451"/><use xlink:href="#b" x="157.963"/><use xlink:href="#aJ" x="165.753"/><use xlink:href="#aK" x="170.754"/></g></g><g class="typst-text" transform="matrix(1 0 0 -1 11 288.596)"><use xlink:href="#O"/><use xlink:href="#t" x="5.946"/><use xlink:href="#aL" x="10.968"/><use xlink:href="#x" x="15.673"/><use xlink:href="#aM" x="18.654"/><use xlink:href="#aL" x="24.809"/><use xlink:href="#aN" x="32.264"/><use xlink:href="#aA" x="37.598"/><use xlink:href="#t" x="41.073"/><use xlink:href="#y" x="46.095"/><use xlink:href="#s" x="52.057"/><use xlink:href="#t" x="57.621"/><use xlink:href="#q" x="62.643"/><use xlink:href="#s" x="66.645"/><use xlink:href="#aO" x="74.959"/><use xlink:href="#x" x="81.522"/><use xlink:href="#aP" x="84.503"/><use xlink:href="#w" x="93.188"/></g><g class="typst-text" transform="matrix(1 0 0 -1 11 302.987)"><use xlink:href="#aQ"/><use xlink:href="#n" x="3.717"/><use xlink:href="#aR" x="8.83"/><use xlink:href="#N" x="13.943"/><use xlink:href="#n" x="16.538"/><use xlink:href="#n" x="21.651"/></g><g class="typst-group"><g class="typst-text" transform="matrix(1 0 0 -1 11 332.72)"><use xlink:href="#aS"/><use xlink:href="#aE" x="9.602"/><use xlink:href="#P" x="18.084"/><use xlink:href="#d" x="27.567"/><use xlink:href="#Q" x="35.199"/><use xlink:href="#a" x="47.681"/><use xlink:href="#b" x="58.983"/><use xlink:href="#c" x="66.773"/><use xlink:href="#d" x="72.285"/><use xlink:href="#c" x="79.812"/><use xlink:href="#I" x="85.324"/><use xlink:href="#J" x="90.279"/><use xlink:href="#d" x="104.213"/><use xlink:href="#aF" x="115.59"/><use xlink:href="#d" x="120.177"/><use xlink:href="#aG" x="127.599"/><use xlink:href="#aH" x="136.231"/><use xlink:href="#d" x="145.277"/><use xlink:href="#aI" x="152.804"/><use xlink:href="#I" x="159.392"/><use xlink:href="#J" x="164.347"/><use xlink:href="#d" x="178.281"/><use xlink:href="#P" x="185.808"/><use xlink:href="#c" x="195.29"/><use xlink:href="#b" x="200.802"/><use xlink:href="#aJ" x="208.592"/><use xlink:href="#aK" x="213.592"/></g></g><g class="typst-text" transform="matrix(1 0 0 -1 11 348.21)"><use xlink:href="#v"/><use xlink:href="#t" x="9.228"/><use xlink:href="#r" x="14.25"/><use xlink:href="#i" x="22.661"/><use xlink:href="#j" x="27.774"/><use xlink:href="#C" x="32.887"/><use xlink:href="#m" x="38.054"/><use xlink:href="#n" x="43.167"/><use xlink:href="#m" x="48.281"/><use xlink:href="#o" x="53.394"/><use xlink:href="#C" x="58.507"/><use xlink:href="#M" x="63.674"/><use xlink:href="#N" x="68.788"/><use xlink:href="#n" x="71.382"/><use xlink:href="#m" x="76.495"/><use xlink:href="#N" x="81.608"/><use xlink:href="#m" x="84.203"/><use xlink:href="#i" x="89.316"/><use xlink:href="#O" x="95.804"/><use xlink:href="#v" x="101.75"/><use xlink:href="#O" x="113.728"/><use xlink:href="#aN" x="119.673"/><use xlink:href="#aO" x="125.007"/></g><g class="typst-text" transform="matrix(1 0 0 -1 11 362.6)"><use xlink:href="#m"/><use xlink:href="#n" x="5.113"/><use xlink:href="#m" x="10.227"/><use xlink:href="#o" x="15.34"/><use xlink:href="#L" x="20.453"/><use xlink:href="#u" x="25.62"/><use xlink:href="#t" x="31.12"/><use xlink:href="#s" x="36.142"/><use xlink:href="#t" x="41.707"/><use xlink:href="#i" x="49.479"/><use xlink:href="#j" x="54.592"/><use xlink:href="#L" x="59.705"/><use xlink:href="#aP" x="64.872"/><use xlink:href="#t" x="73.557"/><use xlink:href="#x" x="78.579"/><use xlink:href="#G" x="81.56"/><use xlink:href="#D" x="84.552"/><use xlink:href="#j" x="91.588"/><use xlink:href="#K" x="96.701"/><use xlink:href="#N" x="101.814"/><use xlink:href="#n" x="104.409"/><use xlink:href="#m" x="109.522"/><use xlink:href="#N" x="114.635"/><use xlink:href="#m" x="117.229"/><use xlink:href="#i" x="122.343"/><use xlink:href="#aT" x="130.206"/><use xlink:href="#v" x="137.736"/><use xlink:href="#aO" x="146.964"/><use xlink:href="#aQ" x="152.877"/><use xlink:href="#n" x="156.594"/><use xlink:href="#aR" x="161.708"/><use xlink:href="#N" x="166.821"/><use xlink:href="#n" x="169.415"/><use xlink:href="#n" x="174.528"/></g><g class="typst-text" transform="matrix(1 0 0 -1 11 376.99)"><use xlink:href="#v"/><use xlink:href="#t" x="9.228"/><use xlink:href="#r" x="14.25"/><use xlink:href="#i" x="22.661"/><use xlink:href="#j" x="27.774"/><use xlink:href="#C" x="32.887"/><use xlink:href="#m" x="38.054"/><use xlink:href="#ac" x="43.167"/><use xlink:href="#M" x="48.281"/><use xlink:href="#aR" x="53.394"/><use xlink:href="#aU" x="61.257"/><use xlink:href="#aV" x="67.724"/><use xlink:href="#C" x="73.847"/><use xlink:href="#j" x="79.014"/><use xlink:href="#K" x="84.127"/><use xlink:href="#N" x="89.241"/><use xlink:href="#n" x="91.835"/><use xlink:href="#m" x="96.948"/><use xlink:href="#N" x="102.062"/><use xlink:href="#m" x="104.656"/><use xlink:href="#i" x="109.769"/><use xlink:href="#O" x="117.632"/><use xlink:href="#aO" x="123.578"/></g><defs><symbol id="a" overflow="visible"><path d="M3.91 1.835q0-.737.316-.978.316-.24 1.166-.24.473 0 .943.199.47.2.91.616.44.418.718 1.181t.278 1.763q0 .797-.056 1.414t-.263 1.308-.553 1.147-.985.756-1.519.3q-.955 0-.955-1.157zM2.85 0 .474-.03Q.368.03.368.23q0 .199.106.266.383.015.571.053t.38.17q.192.13.26.413.067.282.067.748v6.173q0 .46-.068.745-.067.286-.259.417-.192.132-.376.17-.184.037-.575.052-.106.075-.106.263t.106.263q1.752-.03 2.376-.03.278 0 .962.008.685.007 1.113.007 2.722 0 4.181-1.462 1.459-1.463 1.459-3.726 0-1.158-.338-2.083-.339-.925-.91-1.414Q7.835-.03 5.347-.03q-.309 0-1.249.015T2.85 0"/></symbol><symbol id="b" overflow="visible"><path d="M4.55.744 4.451.737Q4.038.414 3.474.132T2.602-.15Q.677-.15.677 1.466q0 .835.661 1.279.662.443 2.098.887l1.03.323q0 1.339-.308 1.786t-.88.448q-.601 0-.646-.346-.023-.15.022-.406.046-.256.046-.324 0-.285-.279-.5-.278-.214-.676-.214-.798 0-.798.782 0 .474.485.868.485.395 1.132.59.647.196 1.24.196 2.633 0 2.633-2.662l-.03-2.218q0-.571.094-.8t.334-.23q.369 0 .647.218.233-.173.278-.436-.91-.865-2.015-.857Q4.7-.158 4.549.744m-.083 2.61-.805-.256q-.383-.12-.628-.278-.244-.158-.346-.357-.101-.2-.131-.354t-.03-.417q0-.399.214-.662t.68-.263q.354 0 1.046.556z"/></symbol><symbol id="c" overflow="visible"><path d="M.97 6.685h.429q0 1.556.173 1.782.045.06.184.12t.342.124.286.102q.18.075.515.173.334.098.417.098.12 0 .12-.136-.045-.722-.082-1.744l-.015-.52h1.804q.12 0 .12-.09v-.48q0-.204-.368-.204H3.34q0-.864.007-2.263.008-1.399.008-1.692 0-.541.195-.786.196-.244.489-.244.602 0 .872.218.278-.233.278-.436-.248-.339-.86-.598-.613-.26-1.23-.26-.767 0-1.278.43-.459.398-.466 1.338 0 2.278.045 4.293h-1q-.076 0-.076.098v.444q.264.233.647.233"/></symbol><symbol id="d" overflow="visible"><path d="M2.722 4.233H4.82q.03.03.03.324 0 .835-.3 1.233-.301.399-.685.399-.173 0-.417-.14-.245-.139-.418-.38-.278-.42-.308-1.436M6.64 1.985q.233 0 .225-.474Q5.722-.15 3.985-.15 2.4-.15 1.557.617.57 1.51.57 3.053q0 1.677 1.076 2.73 1.075 1.052 2.391 1.052.82 0 1.387-.237.568-.236.85-.654.282-.417.406-.865.124-.447.124-.98 0-.475-.443-.482h-3.7q0-.03-.008-.105-.007-.076-.007-.136 0-1.105.507-1.654.508-.549 1.433-.549 1.256-.007 2.053.812"/></symbol><symbol id="e" overflow="visible"><path d="M7.643 1.359h-1.37q-.16 0-.419.043-.257.043-.504.164-.247.12-.425.33-.177.21-.177.548v1.95q0 .177-.08.306-.081.129-.202.215-.12.085-.274.126-.153.04-.298.04h-.908q-.145 0-.306-.032t-.293-.11-.22-.207-.088-.328V2.057q.037-.086.102-.115.064-.03.123-.03.134.01.223.102.089.091.089.253 0 .188-.073.244-.072.056-.156.089-.083.032-.153.08-.07.049-.07.215 0 .161.119.274.118.113.333.113.3 0 .416-.148t.115-.513q0-.21-.05-.438-.052-.228-.256-.454-.193-.22-.454-.295-.26-.075-.453-.075h-.355q-.14 0-.255.113-.116.112-.116.279v2.943q0 .231.092.406.091.174.236.298.145.123.322.201t.35.116q-.081.08-.175.12-.094.041-.24.041-.064 0-.128-.008t-.15-.008q-.124 0-.188.14l-.145.354 1.332 1.047h.15l.838-.43q.059-.02.129-.02.048 0 .091.005l.097-.162-.51-.44q-.033 0-.108.048-.075.049-.188.108t-.263.113q-.15.053-.328.053-.053 0-.118-.027-.064-.026-.134-.08-.161-.124-.22-.204l.016-.027q.113.016.274.016.381 0 .693-.381.166-.194.65-.194h.596q.236 0 .459-.043t.395-.14.314-.244.204-.311.062-.33V2.733q0-.199.091-.328T5.93 2.2q.134-.077.295-.11.161-.032.306-.032h.833q.129 0 .276.038.148.037.277.118t.215.196.086.287V5.57q0 .204-.137.295-.137.092-.325.092-.065 0-.132-.033-.067-.032-.131-.032-.076 0-.135.108l-.214.354 1.332 1.047h.15l.838-.43q.054-.02.129-.02.048 0 .091.005l.097-.162-.51-.44q-.033 0-.108.048-.075.049-.188.108t-.263.113q-.15.053-.328.053-.053 0-.12-.019-.068-.018-.127-.05-.16-.092-.22-.172l.016-.027q.129.027.269.027.408 0 .615-.159.206-.158.26-.373V2.428q0-.242-.14-.43t-.316-.317-.344-.201-.255-.089-.194-.024-.185-.008"/></symbol><symbol id="f" overflow="visible"><path d="M-1.24-1.8q0-.187-.151-.327-.15-.14-.365-.14-.076 0-.18.049-.105.048-.105.129v.096q0 .07.016.086l.14.156v1.456q0 .08-.027.142t-.113.062q-.134 0-.134-.161 0-.022.005-.049.113-.027.167-.11.053-.083.053-.271 0-.097-.04-.193-.04-.097-.148-.097-.16 0-.228.142-.067.142-.067.277 0 .145.032.287t.108.25.196.177.309.07q.23 0 .38-.129.151-.129.151-.269z"/></symbol><symbol id="g" overflow="visible"><path d="M1.123-1.456v7.074q-.017.108-.148.188-.132.08-.325.08-.065 0-.129-.007Q.457 5.87.365 5.87q-.118 0-.182.134l-.145.354 1.326 1.048h.156l.838-.425q.059-.026.129-.026.048 0 .086.01l.096-.16-.504-.447q-.033 0-.11.049-.078.048-.191.11t-.26.113-.326.05q-.059 0-.131-.015-.073-.017-.126-.049-.156-.096-.237-.258L.8 6.338q.13.021.29.021.414 0 .618-.155.204-.156.28-.376v-7.015q.005-.236.117-.322.178-.097.387-.097h1.719q.21 0 .354.054.178.059.178.236v1.112h.864v-1.268q0-.182-.102-.333-.102-.15-.263-.255-.16-.105-.354-.156-.194-.05-.376-.05H2.068q-.269 0-.438.064-.17.064-.274.177t-.169.258q-.064.145-.064.311"/></symbol><symbol id="h" overflow="visible"><path d="M8.04 5.892h-.16l-1.725.8-1.16-.757H4.48l-1.686.838-.87-.526v-.081l1.735-.757h2.841q.161 0 .419-.043t.505-.164.424-.33.177-.548V1.359h-.87v2.675q0 .198-.088.327-.089.13-.223.207-.135.078-.296.11t-.306.032H3.244q-.145 0-.298-.04t-.274-.126-.201-.215-.08-.306V1.359h-.86v2.98q0 .21.1.374.098.164.24.285.143.12.283.193l.22.116-1.257.547v.425L3.051 7.4h.37l1.72-.88 1.31.88h.274l1.305-.703q.113-.038.22-.038.118 0 .258.048l.102-.22z"/></symbol><symbol id="i" overflow="visible"><path d="M2.363 6.327q-.198 0-.405-.056-.207-.057-.422-.26-.215-.205-.215-.522 0-.57-.43-.574-.177 0-.276.123-.1.124-.1.253 0 .166.105.38.105.216.325.463t.656.41.993.164q.779 0 1.203-.43.344-.348.344-.87 0-.461-.258-.808-.258-.346-.902-.652l.01-.022q.618-.096 1.086-.515.467-.42.467-1.22 0-1.047-.728-1.673-.728-.625-1.748-.625-.548 0-1.066.212Q.483.317.483.628q0 .135.148.258.148.124.314.124.263 0 .473-.285.01-.01.051-.07l.056-.083L1.58.5q.038-.049.07-.07l.094-.062q.062-.04.126-.056.065-.017.153-.027.089-.011.19-.011.178 0 .38.078.201.078.437.247.237.17.392.545.156.376.156.892 0 1.418-1.445 1.418-.338 0-.526-.022l-.054.355q.763.107 1.246.593.484.486.484.953 0 .5-.263.747-.264.247-.656.247"/></symbol><symbol id="j" overflow="visible"><path d="M3.169 1.343q0-.66.17-.82.168-.158.786-.185.054-.053.054-.185T4.125-.02Q3.024 0 2.782 0q-.45 0-1.53-.021-.044.042-.044.174t.043.185q.64.022.854.194.215.172.215.81v3.589q0 .639-.22.633-.295 0-.956-.273-.134.085-.166.295 1.541.714 2.159 1.101.064 0 .064-.054-.032-.252-.032-1.471z"/></symbol><symbol id="k" overflow="visible"><path d="M7.203 5.29q0-.236-.11-.413t-.288-.317-.41-.242-.481-.155L2.68 3.475q-.145-.021-.25-.123-.104-.102-.104-.215v-.693q0-.226.129-.317.128-.091.322-.091h1.885q.36 0 .64.075.279.075.606.365.306.338.398.559.091.22.091.376v.123l.23.177H7l.204-.16V.65L6.999.505H6.53l-.134.134v1.526q-.075-.097-.196-.24-.12-.142-.317-.265-.196-.124-.486-.212-.29-.09-.709-.09H2.191q-.402 0-.531.157-.13.155-.13.43V3.33q0 .22.092.357.091.137.266.229.175.09.424.155.25.065.562.124l2.395.505q.43.102.559.155t.25.135q.12.08.187.172.068.09.1.188.032.096.032.23v.645q0 .22-.164.352t-.588.131H2.933q-.296 0-.452-.088-.155-.089-.155-.287V5.162q0-.097.061-.135.062-.037.148-.037.108 0 .167.078t.059.158q0 .038-.051.046t-.113.037-.113.105q-.05.075-.05.247 0 .215.112.325.113.11.28.11.144 0 .262-.11t.119-.357q0-.51-.272-.77-.27-.261-.658-.261H1.94q-.188 0-.298.147-.11.148-.11.438v1.3q0 .28.156.537.284.37.854.37h3.727q.247 0 .39-.061.142-.062.209-.113t.137-.132.134-.228.065-.454z"/></symbol><symbol id="l" overflow="visible"><path d="M2.632 4.023V1.75q0-.167-.113-.28-.113-.112-.247-.112h-.355q-.193 0-.486.075-.292.075-.486.295-.193.215-.247.449t-.053.443q0 .365.145.513t.386.148q.22 0 .336-.113.115-.113.115-.274 0-.166-.072-.215-.073-.048-.156-.078t-.156-.086-.072-.25q0-.16.091-.252.092-.091.231-.102.054 0 .145.03t.134.115V4.34q0 .102.033.223.032.12.112.241.081.121.218.234t.352.204l-1.37.612v.425L3.051 7.4h.37L6.43 6.36l1.552 1.042h.274l3.336-1.095V1.359h-.827v4.469l-2.997.945-1.483-1H5.77l-2.976 1-.87-.526v-.081l1.735-.757h2.841q.161 0 .419-.043t.505-.164.424-.33.177-.548V1.359h-.87v2.675q0 .198-.088.327-.089.13-.223.207-.135.078-.296.11t-.306.032H3.486q-.145 0-.298-.04t-.274-.126-.202-.215-.08-.306"/></symbol><symbol id="m" overflow="visible"><path d="M.671 5.146q0 .547.562 1.055.56.507 1.42.507.747 0 1.303-.421.556-.422.556-1.249 0-.397-.167-.75-.166-.351-.357-.577t-.577-.596L2.299 2.046Q1.482 1.23 1.482.714h1.96q.296 0 .463.231.166.231.306.827.21.043.322-.059Q4.512.945 4.27-.02 3.765 0 3.41 0H1.483L.57-.021Q.57.505.82.994t1.007 1.262l.817.8q.902.913.897 1.94 0 .713-.29 1.022t-.667.31q-.547 0-.816-.21T1.5 5.656q0-.054.043-.153.042-.1.042-.11.043-.156.043-.231 0-.167-.18-.304t-.335-.137q-.177 0-.309.124-.132.123-.132.3"/></symbol><symbol id="n" overflow="visible"><path d="M2.551 6.327q-.21 0-.395-.134t-.367-.451-.293-.994-.11-1.633Q1.386.28 2.519.274q.097 0 .207.032t.26.126.288.31.223.536q.188.682.188 2.262 0 2.057-.64 2.6-.21.187-.494.187M2.508-.107q-.655 0-1.117.461Q.94.8.685 1.574.43 2.347.43 3.234q0 1.562.63 2.518.632.956 1.491.956.806 0 1.343-.714.747-.988.747-2.659 0-.913-.21-1.619T3.89.631 3.2.073t-.693-.18"/></symbol><symbol id="o" overflow="visible"><path d="M2.981 5.575q-.838-1.144-2.1-3.163h2.1zm1.75-3.163q.167 0 .162-.178 0-.096-.105-.22-.104-.123-.212-.123H3.82V.88q0-.177.027-.282t.142-.153.18-.06.306-.037q.075-.01.113-.01.054-.054.054-.186T4.587-.02Q3.883 0 3.389 0q-.596 0-1.3-.021-.043.042-.043.174t.043.185q.591.043.736.162.156.123.156.38v1.01H.736q-.339 0-.43.463Q2.01 5.027 3.287 6.59q.097.124.177.118h.355l.021-.021Q3.82 6.59 3.82 5.624V2.412z"/></symbol><symbol id="p" overflow="visible"><path d="M4.93 6.751q-.042.043-.045.178-.003.134.046.188.902-.022 1.197-.022.307 0 .967.022.054-.054.054-.186 0-.131-.054-.18-.247-.026-.424-.107-.177-.08-.3-.244-.124-.164-.189-.29-.064-.127-.166-.379L3.738.124q-.096-.253-.263-.258-.156 0-.252.258l-2.17 5.628q-.237.607-.395.785-.158.177-.594.214-.053.054-.053.183t.043.183q.725-.022 1.144-.022.45 0 1.332.022.043-.054.043-.186 0-.131-.043-.18-.553-.059-.655-.222-.103-.164.096-.653l1.751-4.48h.054l1.735 4.41q.21.451.1.677-.111.225-.68.268"/></symbol><symbol id="q" overflow="visible"><path d="M1.934 3.937q0-.054.035-.075.034-.022.088.054.22.376.545.644.325.269.674.269.317 0 .49-.17.171-.169.171-.357 0-.21-.158-.381-.159-.172-.358-.172-.204 0-.397.258-.107.14-.285.14-.134 0-.505-.538-.263-.397-.263-.735V1.343q0-.66.148-.809.148-.147.755-.196.053-.053.053-.185T2.874-.02Q2.105 0 1.542 0 1.058 0 .285-.021.242.02.242.153t.043.185Q.822.371.96.526q.14.156.14.817v2.143q0 .462-.126.583t-.588.163q-.065.188-.022.312.817.107 1.348.317.086 0 .135-.086.053-.134.086-.838"/></symbol><symbol id="r" overflow="visible"><path d="M2.245-1.762q-.451-.79-1.069-.79-.22 0-.368.116-.147.116-.147.293 0 .145.137.309t.346.164q.054 0 .148-.017.094-.016.169-.016.376 0 .553.317.263.537.43 1.01Q2.578 0 2.288.661L1.042 3.556q-.21.488-.368.633t-.497.188q-.043.043-.043.175t.043.19q.44-.02.892-.02.43 0 1.24.02.044-.053.044-.187 0-.135-.043-.178-.43-.032-.487-.201-.056-.17.127-.513l.977-2.288q.135-.312.263-.01l1.09 2.518q.124.263-.037.363t-.494.131q-.054.043-.054.175t.054.19q.66-.02 1.002-.02.34 0 .781.02.054-.053.054-.187 0-.135-.054-.178-.376-.043-.545-.19t-.346-.513q-.806-1.74-1.945-4.49-.23-.548-.45-.946"/></symbol><symbol id="s" overflow="visible"><path d="M3.797 1.364v2.09q0 .252-.035.357-.034.105-.153.239-.338.397-.891.392-.66 0-1.026-.548-.317-.451-.317-1.46 0-.968.363-1.497.362-.529.845-.529.43 0 1.037.527.177.155.177.43m-.123-.81q-.806-.661-1.375-.661-.87 0-1.37.647t-.5 1.694q0 1.177.758 1.934.693.66 1.649.66.166 0 .365-.048t.341-.094q.143-.045.153-.045.097 0 .102.102V6.15q0 .354-.018.529-.02.175-.14.258t-.185.088-.366.027q-.123.124-.064.328.977.075 1.541.3.145 0 .145-.112-.043-.44-.048-1.155V1.43q0-.43.15-.594t.656-.207Q5.52.575 5.52.475q0-.099-.053-.147-.881-.097-1.3-.435-.097-.043-.21 0-.096.386-.118.644-.01.054-.067.054-.056 0-.1-.038"/></symbol><symbol id="t" overflow="visible"><path d="m3.223 2.562-.87-.23q-1.048-.264-1.042-1.21 0-.295.201-.54.201-.244.588-.244.376 0 .967.49.156.123.156.284zm0-2.036H3.2l-.22-.172q-.596-.461-1.198-.461Q.397-.107.397 1.08q0 .547.5.966.5.42 1.316.629l.945.23q.065.022.065.13 0 1.428-.892 1.428-.365 0-.623-.115Q1.45 4.232 1.45 4q0-.155.022-.214.032-.065.037-.2 0-.123-.15-.249t-.37-.126q-.387 0-.382.397 0 .462.567.841.566.379 1.248.379 1.66 0 1.66-1.859V1.354q0-.231.005-.363.006-.132.038-.287.032-.156.105-.22.072-.065.18-.065.198 0 .408.177.156-.086.188-.3-.42-.409-1.048-.403-.375 0-.529.163-.153.164-.206.47"/></symbol><symbol id="u" overflow="visible"><path d="M3.507 3.067q0 .682-.274 1.053t-.79.37q-.88 0-.88-1.17 0-.307.032-.532t.132-.462.314-.363.542-.126q.924 0 .924 1.23M1.45-.107q-.338-.409-.338-1.037 0-.494.462-.782.462-.287.86-.287.515 0 .998.134.484.135.82.42.335.284.335.66 0 .21-.12.352-.122.142-.439.33-.338.188-1.332.183-.053 0-.33-.016-.277-.017-.475-.017-.242.006-.44.06m3.432 4.366q-.21 0-.306.194-.086.134-.22.134-.097 0-.236-.089-.14-.088-.204-.174.472-.484.472-1.144 0-.768-.545-1.225Q3.298 1.5 2.53 1.5q-.607 0-1 .23-.198-.273-.198-.639 0-.317.21-.472.209-.156.494-.156l.327.021q.44.054.741.054 1.166 0 1.606-.36.484-.397.484-.891 0-.57-.467-1.018-.468-.449-1.169-.666-.7-.218-1.458-.218-.736 0-1.24.296-.506.295-.506.956 0 .79.897 1.332Q.747.22.747.816q0 .296.131.61.132.314.352.497-.57.548-.57 1.235 0 .736.562 1.203.561.468 1.319.468.682 0 1.144-.307.198.264.529.411.33.148.572.148.22 0 .362-.115.143-.116.143-.293 0-.167-.127-.29-.126-.124-.282-.124"/></symbol><symbol id="v" overflow="visible"><path d="m7.289 1.278-.28 4.598h-.027L4.512.054q-.086-.167-.156-.161-.097 0-.167.16l-2.277 5.71h-.021l-.42-4.41q-.042-.515.09-.74.13-.226.641-.275.043-.053.043-.185T2.202-.02Q1.542 0 1.166 0 .88 0 .22-.021.177.02.177.153T.22.338q.451.038.613.253.16.215.209.741l.44 4.533q.054.607-.053.73-.108.124-.693.156-.054.043-.054.178 0 .134.054.188l1.595-.022L4.587 1.51q.054-.145.089-.145t.099.156l2.331 5.575 1.44.022q.053-.054.056-.186.002-.131-.057-.18-.542-.032-.666-.177-.123-.145-.086-.612l.328-4.63q.016-.263.03-.392t.053-.26.08-.178.146-.088.215-.054.32-.022q.053-.053.053-.185T8.964-.02Q8.24 0 7.767 0 7.4 0 6.59-.021q-.053.042-.053.174t.053.185q.215.011.306.02.092.007.2.045.107.037.136.08t.057.164.021.25-.021.381"/></symbol><symbol id="w" overflow="visible"><path d="m1.364 3.104 1.993.033q.166 0 .161.15 0 .629-.268.892-.269.263-.645.263-.145 0-.285-.038-.14-.037-.343-.158-.205-.121-.371-.416-.167-.296-.242-.726M4.25 1.021q.188-.011.23-.172-.735-.956-1.874-.956-1.09 0-1.681.703-.516.596-.516 1.628 0 1.165.698 1.874.699.71 1.499.71 1.858 0 1.858-1.913 0-.188-.204-.188l-2.927.022q0-.924.35-1.51.483-.79 1.202-.79.462 0 .755.132t.61.46"/></symbol><symbol id="x" overflow="visible"><path d="M.988 6.59q0 .2.188.363.188.164.387.164.21 0 .368-.183t.158-.387q0-.188-.174-.36-.175-.171-.395-.171-.199 0-.365.182-.167.183-.167.392m1.005-5.247q0-.66.131-.814.132-.153.658-.19.054-.054.054-.186T2.782-.02Q2.057 0 1.563 0 1.058 0 .328-.021.285.02.285.153t.043.185q.526.043.66.194.135.15.135.81v2.144q0 .462-.127.583-.126.12-.588.163-.064.188-.021.312 1.02.134 1.504.317.145 0 .145-.075-.043-.704-.043-1.252z"/></symbol><symbol id="y" overflow="visible"><path d="M2.025 3.937q.779.892 1.805.892.628 0 .913-.376.295-.398.295-1.472V1.343q0-.65.126-.803.127-.153.61-.202.043-.053.043-.185T5.774-.02Q5.114 0 4.608 0q-.462 0-1.122-.021-.043.053-.043.185 0 .131.043.174.451.043.566.2.116.155.116.805v1.67q0 .586-.129.849-.21.397-.585.397-.672 0-1.343-.65-.188-.21-.188-.462V1.343q0-.65.115-.803.116-.153.556-.202.043-.053.046-.185T2.594-.02Q1.934 0 1.5 0 .95 0 .285-.021.242.02.242.153t.043.185Q.8.381.929.532q.13.15.13.81v2.144q0 .462-.127.583-.126.12-.594.163-.064.188-.021.312.816.107 1.353.317.086 0 .135-.086.064-.134.086-.838 0-.145.134 0"/></symbol><symbol id="z" overflow="visible"><path d="M2.234 4.377q-.381-.021-.443-.182t.11-.553l.881-2.267q.075-.188.116-.231.04-.043.078.005.037.049.112.247l.774 1.95-.07.172q-.091.231-.145.344t-.153.247-.228.193-.317.075q-.043.043-.043.175t.043.19q.66-.02.967-.02.44 0 1.1.02.044-.053.044-.187 0-.135-.043-.178-.43-.032-.497-.158t.094-.513l.95-2.406q.065-.172.113-.167.049.006.13.21L6.73 3.63q.075.182.094.28.019.096-.008.214t-.188.177q-.161.06-.457.075-.053.043-.053.175t.053.19q.661-.02 1.123-.02.354 0 .79.02.053-.053.056-.187.003-.135-.057-.178-.386-.021-.58-.212-.193-.19-.349-.577L5.72.097q-.086-.231-.252-.231-.167 0-.263.22L4.07 2.814 2.96.107q-.107-.241-.263-.241-.166 0-.263.22L.993 3.642q-.177.435-.332.566-.156.132-.537.17-.054.042-.057.174t.057.19q.569-.02.999-.02.45 0 1.111.02.054-.053.054-.187 0-.135-.054-.178"/></symbol><symbol id="A" overflow="visible"><path d="M2.385-.107q-.758 0-1.088.421-.33.422-.33 1.072v2.11q0 .516-.137.683-.137.166-.545.198-.043.043-.043.175t.043.19q.746-.02 1.122-.02.274 0 .387.02.086 0 .086-.07-.043-.805-.043-1.132V1.542q0-.65.268-.892.269-.242.613-.242.494 0 1.1.527.178.155.173.43v2.12q0 .527-.132.7-.131.171-.55.192-.054.043-.054.175t.054.19q.746-.02 1.122-.02.274 0 .387.02.086 0 .086-.07-.043-.805-.043-1.132V1.429q0-.43.15-.594t.656-.207Q5.72.575 5.72.475q0-.099-.053-.147-.881-.097-1.3-.435-.097-.043-.21 0-.096.376-.118.644-.01.054-.067.051-.056-.003-.1-.04-.816-.655-1.487-.655"/></symbol><symbol id="B" overflow="visible"><path d="m2.003 3.937.672-.988q.107-.167.21-.022l.714 1q.177.284.12.351t-.384.1q-.053.042-.056.174t.056.19q.57-.02.924-.02.366 0 .8.02.044-.053.044-.187 0-.135-.043-.178-.339-.032-.559-.142t-.51-.464l-.924-1.177q-.065-.075 0-.16l.994-1.397q.316-.44.504-.556t.597-.143q.053-.053.053-.185T5.162-.02Q4.635 0 4.179 0q-.43 0-1.09-.021-.054.042-.054.174t.053.185q.21.022.288.051.078.03.062.156-.017.126-.205.379l-.639.88q-.096.135-.198-.02L1.703.778Q1.536.505 1.582.44q.045-.064.362-.102.054-.053.057-.185.002-.132-.057-.174Q1.375 0 1.024 0 .67 0 .23-.021.177.02.177.153t.054.185Q.569.36.784.465 1 .569 1.3.956l.924 1.187q.053.065-.011.167L1.25 3.706q-.43.618-.988.671-.043.043-.043.175t.043.19q.57-.02.945-.02.516 0 1.112.02.054-.053.054-.187 0-.135-.054-.178-.386-.043-.44-.099t.123-.341"/></symbol><symbol id="C" overflow="visible"><path d="M1.144 1.047q.328 0 .526-.298.2-.298.2-.792 0-.548-.385-.935-.384-.386-.916-.483-.096.097-.096.263.397.097.682.39.284.292.284.491 0 .296-.392.338Q.564.097.56.505q0 .23.166.387.167.155.419.155"/></symbol><symbol id="D" overflow="visible"><path d="M.526 1.52q.054.054.172.054T.87 1.53Q1.047.784 1.3.518q.252-.266.779-.266.354 0 .644.2.29.198.29.569 0 .365-.225.585-.226.22-.897.494-.661.274-.935.594t-.274.905q0 .515.462.872.462.358 1.09.358.253 0 .516-.038t.556-.1.368-.072q-.022-.585-.065-1.165-.053-.054-.177-.054-.123 0-.177.043-.054.328-.18.548t-.298.314-.298.126-.245.032q-.295 0-.534-.19-.24-.191-.24-.513 0-.414.25-.604.25-.191.852-.417 1.29-.478 1.29-1.46 0-.387-.184-.675Q3.486.317 3.201.17 2.917.021 2.64-.043T2.1-.107q-.537 0-.999.118-.075.021-.22.021Q.773.032.607 0 .602.575.527 1.52"/></symbol><symbol id="E" overflow="visible"><path d="M1.837 3.147V1.343q0-.468.056-.664.057-.196.175-.255t.424-.086q.049-.048.051-.18.003-.131-.05-.18Q1.874 0 1.406 0 .924 0 .2-.021.15.027.15.159.15.29.2.338q.274.02.395.048.12.027.222.131t.127.288.024.537V6.15q0 .354-.016.529t-.137.258-.188.088-.363.027Q.14 7.176.2 7.38q.977.075 1.541.3.145 0 .14-.112-.043-.44-.043-1.155l-.01-2.476q0-.134.09-.021.011.016.017.021.805.892 1.874.892.629 0 .913-.376.296-.387.296-1.472V1.343q0-.65.126-.803t.61-.202q.042-.053.042-.185T5.752-.02Q5.027 0 4.587 0q-.505 0-1.123-.021-.043.053-.043.185 0 .131.043.174.452.043.567.2.115.155.115.805v1.67q0 .586-.128.849-.2.397-.586.397-.746 0-1.407-.65-.188-.204-.188-.462"/></symbol><symbol id="F" overflow="visible"><path d="M.779 4.829q.295-.108.65-.108h2.014q.145 0 .298.006l.263.01.121.006q.134 0 .134-.078t-.198-.406Q2.653 1.94 1.418.376h1.466q.408.01.631.19t.443.642l.156.323q.21 0 .328-.07-.124-.827-.35-1.493L.662 0Q.408 0 .408.134q0 .086.097.22 1.649 2.213 2.707 3.991l-1.407-.032q-.618-.01-.892-1.004-.188-.043-.365.037.156.827.166 1.418 0 .065.065.065"/></symbol><symbol id="G" overflow="visible"><path d="M1.09 6.59q0 .2.186.363.185.164.384.164.21 0 .37-.183.161-.183.161-.387 0-.188-.177-.36t-.397-.171q-.199 0-.363.182-.164.183-.164.392m.15-3.104q0 .462-.125.583-.127.12-.589.163-.064.188-.021.312 1.047.134 1.51.317.144 0 .139-.075-.043-.704-.043-1.257v-2.32q0-1.483-.204-2.216T1.289-2.08Q.838-2.455.075-2.455q-.199 0-.4.127-.201.126-.201.346 0 .145.126.282t.223.137q.053 0 .11-.016.056-.016.094-.032.037-.016.088-.054.052-.038.073-.056.021-.02.064-.068l.054-.059Q.43-1.97.65-1.97q.376 0 .483.728.108.727.108 2.08z"/></symbol><symbol id="H" overflow="visible"><path d="M6.234 1.895q0-.925.263-1.147T7.73.496q.06-.06.06-.263T7.73-.03Q6.19 0 5.128 0q-1.03 0-2.541-.03-.06.06-.06.26 0 .199.06.266.97.03 1.233.252t.263 1.147V7.79q0 .752-.162 1.132-.161.38-.567.38h-.752q-.797 0-1.267-.361T.647 7.685q-.414 0-.602.075.308 1.324.384 2.248 0 .046.067.046 1.557-.12 3.587-.12H6.25q2.045 0 3.451.12.045 0 .045-.046.015-1.03.203-2.203-.173-.075-.601-.075-.188.865-.68 1.218-.493.354-1.38.354h-.339q-.398 0-.556-.384-.158-.383-.158-1.173z"/></symbol><symbol id="I" overflow="visible"><path d="M3.572 1.88q0-.925.184-1.132t.929-.252q.06-.06.06-.263t-.06-.263Q3.36 0 2.572 0q-.82 0-2.113-.03-.06.06-.06.26 0 .199.06.266.737.06.925.26.188.199.188 1.124v2.955q0 .647-.177.831T.57 5.91q-.09.294-.03.497 2.452.323 2.738.428.353 0 .353-.263-.06-.865-.06-1.624zM1.496 9.18q0 .384.282.67.282.285.794.285.443 0 .722-.315.278-.316.278-.707 0-.339-.309-.647-.308-.308-.782-.308-.443 0-.714.312t-.27.71"/></symbol><symbol id="J" overflow="visible"><path d="M3.512 1.88q0-.91.139-1.124t.658-.26q.06-.06.064-.263.003-.203-.064-.263Q2.985 0 2.512 0q-.82 0-2.113-.03-.06.06-.06.26 0 .199.06.266.736.06.924.26.188.199.188 1.124v2.88q0 .647-.176.83-.177.185-.824.245-.09.293-.037.496 1.308.173 2.556.504.339 0 .361-.263.053-.353.083-.812 1.902 1.075 2.55 1.075.66 0 1.116-.3.455-.301.635-.813.775.436 1.572.775.797.338 1.188.338 1 0 1.47-.598.47-.597.47-1.86V1.97q0-.94.222-1.192t.966-.282q.075-.06.075-.263t-.075-.263Q12.34 0 11.475 0q-.587 0-1.88-.03-.075.06-.075.26 0 .199.075.266.511.03.695.297.185.267.185 1.177v2.572q0 1.158-1.053 1.158-.203 0-.64-.136-.435-.135-.841-.345.052-.271.052-.843V1.97q0-.91.184-1.177.185-.267.696-.297.06-.06.06-.263t-.06-.263Q7.55 0 6.993 0q-.586 0-1.88-.03-.06.06-.06.26 0 .199.06.266.512.03.696.297t.184 1.177v2.572Q5.993 5.7 4.91 5.7q-.541 0-1.398-.527V1.88"/></symbol><symbol id="K" overflow="visible"><path d="M2.573 6.327q-.473 0-.741-.266-.269-.266-.269-.658 0-.306.148-.577.147-.271.62-.577l.344-.21q.88.65.88 1.305 0 .42-.238.701-.24.282-.744.282m1.75-.994q0-.472-.424-.872t-.929-.653l.779-.473q.86-.515.86-1.552 0-.703-.573-1.297-.572-.593-1.57-.593-.892 0-1.427.443-.534.443-.534 1.27 0 .757.639 1.321.381.333.886.602l-.279.177q-.967.607-.972 1.488 0 .65.513 1.082t1.334.432q.79 0 1.244-.384t.454-.99M2.488.273q.505 0 .913.283.408.282.408 1.007 0 .88-.961 1.46l-.516.312q-.618-.408-.854-.886t-.236-.843q0-.671.392-1.002t.854-.33"/></symbol><symbol id="L" overflow="visible"><path d="M.628.473q0 .241.17.413.169.172.41.172.242 0 .414-.172t.172-.413-.172-.411-.414-.17-.41.17-.17.41"/></symbol><symbol id="M" overflow="visible"><path d="M1.488 3.378q-.092-.44-.092-.859 0-1.3.358-1.778.357-.478.964-.478.43 0 .714.451.285.452.285 1.31 0 .243-.06.49-.058.247-.19.51t-.408.435q-.277.172-.663.172-.521 0-.908-.253m.102.398q.52.236 1.036.242 1.048 0 1.526-.503.478-.502.478-1.291 0-.849-.526-1.598-.527-.75-1.51-.75-.365 0-.693.11t-.668.382-.546.832-.204 1.351q0 1.472 1.026 2.664.913 1.07 2.407 1.504.134-.075.134-.284-1.015-.382-1.609-1.09-.593-.71-.851-1.57"/></symbol><symbol id="N" overflow="visible"><path d="M.768 3.905q0 .241.172.413t.414.172.41-.172.17-.413-.17-.414-.41-.172-.414.172-.172.414m0-3.113q0 .245.172.414t.414.169.41-.17q.17-.168.17-.413T1.764.38q-.169-.17-.41-.17-.242 0-.414.17Q.768.548.768.792"/></symbol><symbol id="O" overflow="visible"><path d="M2.079 6.096V3.53q.198-.054.838-.054.816 0 1.227.403.41.403.41 1.268 0 .956-.418 1.305-.42.349-1.101.349-.956 0-.956-.704m-.935-.344q0 .661-.17.82-.168.158-.786.18-.054.042-.054.177t.054.188q.88-.022 1.418-.022.22 0 .76.038.54.037.75.037.714 0 1.23-.185.515-.185.767-.489.253-.303.357-.582.105-.28.105-.57 0-.386-.131-.754-.132-.368-.411-.715-.28-.346-.814-.558T2.97 3.104q-.548 0-.891.108v-1.87q0-.65.21-.808.209-.158.912-.196.054-.053.054-.185T3.2-.02Q2.101 0 1.617 0q-.44 0-1.429-.021Q.134.02.134.153t.054.185Q.806.36.975.521t.169.822z"/></symbol><symbol id="P" overflow="visible"><path d="M3.512 1.88q0-.91.139-1.124t.658-.26q.06-.06.064-.263.003-.203-.064-.263Q2.985 0 2.512 0q-.82 0-2.113-.03-.06.06-.06.26 0 .199.06.266.736.06.924.26.188.199.188 1.124v2.88q0 .647-.176.83-.177.185-.824.245-.09.293-.037.496 1.308.173 2.556.504.339 0 .361-.263.068-.459.098-.993 1.835 1.264 2.564 1.256 2.046 0 2.046-2.459V1.97q0-.94.225-1.192.226-.252.963-.282.075-.06.075-.263T9.287-.03Q7.963 0 7.098 0q-.586 0-1.88-.03-.075.06-.075.26 0 .199.076.266.51.03.695.297t.184 1.177v2.572q0 1.158-1.075 1.158-.459 0-1.511-.722V1.88"/></symbol><symbol id="Q" overflow="visible"><path d="M5.414 1.459q-.007.195-.007.39v3.79q-.256.347-.523.448t-.635.102q-.737 0-1.136-.662-.383-.632-.39-2 0-1.294.386-1.978.388-.684.99-.684.142 0 .612.203t.703.39M5.46.737h-.128Q4.948.474 4.34.162 3.729-.15 3.45-.15q-.601 0-.97.142-.368.143-.834.504Q1.105.91.838 1.61T.571 3.053q0 1.526 1.117 2.654t2.606 1.128q.616 0 1.113-.173V8.67q0 .782-.155.936-.154.154-.89.222-.121.218-.053.519 1.91.075 2.895.406.248 0 .248-.203-.045-.572-.045-1.572V2.045q0-.661.191-.898Q7.79.91 8.407.85q.09-.294.03-.497Q7.129.18 5.88-.15q-.338 0-.353.255-.038.271-.068.632"/></symbol><symbol id="R" overflow="visible"><path d="M4.807 4.721q.526 0 1.187.022.054-.054.054-.188 0-.135-.054-.178-.483-.032-.615-.19-.131-.159-.131-.809V1.343q0-.66.131-.814.132-.153.68-.19.043-.054.045-.186T6.06-.02Q5.44 0 4.818 0q-.57 0-1.123-.021-.043.053-.043.185 0 .131.043.174.451.033.567.194.115.16.115.81v2.386q0 .338-.088.45-.089.114-.384.114H2.573q-.296 0-.379-.132t-.083-.432V1.343q0-.65.115-.803.116-.153.556-.202.054-.053.054-.185T2.782-.02Q2.122 0 1.682 0q-.64 0-1.295-.021Q.333.02.33.153.328.285.387.338q.558.033.706.194.148.16.148.81v2.036q0 .65-.132.809-.131.158-.615.19-.054.043-.054.175t.054.19q.66-.02 1.187-.02z"/></symbol><symbol id="S" overflow="visible"><path d="M1.563 3.529q0-.451.226-.752.225-.3.687-.3h.768V3.76q0 .317-.148.467-.147.15-.48.15-.629 0-.84-.209-.213-.21-.213-.64M1.251 0Q.392-.01.177-.021.134.02.134.153t.043.185q.339.022.5.11.16.09.258.358.096.274.273.633.156.328.325.503.17.174.465.255.016.005.01.027-.005.021-.026.026-.634.017-1 .301-.364.285-.364.806 0 .274.059.478t.252.43.645.351q.45.127 1.133.127.124 0 .446-.011t.52-.01q.484 0 1.23.02.044-.053.046-.187.003-.135-.045-.178-.527-.043-.658-.19-.132-.148-.132-.809V1.343q0-.66.132-.814.131-.153.658-.19.043-.054.045-.186T4.904-.02Q4.2 0 3.684 0q-.504 0-1.23-.021-.053.042-.056.174-.002.132.057.185.526.043.658.194.131.15.131.81V2.1H2.96q-.392 0-.66-.352-.269-.352-.5-1.055-.118-.36-.228-.524T1.251 0"/></symbol><symbol id="T" overflow="visible"><path d="M2.003 1.343v2.97h-.166q-.65 0-.876-.242-.225-.241-.376-.956l-.3.043q.123.768.134 1.628.88-.065 1.606-.065h.822q.87 0 1.632.065.011-.806.119-1.628-.145-.043-.285-.043-.156.704-.387.95-.23.248-.87.248h-.182v-2.97q0-.66.136-.82.137-.158.653-.185.054-.053.054-.185T3.663-.02Q2.825 0 2.443 0q-.375 0-1.235-.021-.042.042-.042.174t.042.185q.516.022.656.183t.14.822"/></symbol><symbol id="U" overflow="visible"><path d="M5.269 3.378V1.343q0-.66.132-.814.131-.153.658-.19.053-.054.056-.186T6.059-.02Q5.199 0 4.839 0q-.397 0-1.187-.021Q3.61.02 3.61.153t.043.185q.516.043.631.188.116.145.116.817v.956H2.046v-.956q0-.672.116-.82.115-.147.631-.185.043-.053.043-.185T2.793-.02Q2.003 0 1.617 0q-.355 0-1.23-.021Q.333.02.33.153.328.285.387.338q.526.043.658.194.131.15.131.81v2.036q0 .661-.131.814-.132.153-.658.185-.054.043-.057.175-.002.132.057.19.88-.02 1.219-.02.354 0 1.187.02.043-.053.043-.187 0-.135-.043-.178-.516-.043-.631-.185-.116-.142-.116-.814v-.714H4.4v.714q0 .672-.116.82-.115.147-.63.18-.044.042-.044.174t.043.19q.86-.02 1.177-.02.848 0 1.23.02.053-.053.056-.187.003-.135-.056-.178-.527-.043-.658-.19-.132-.148-.132-.809"/></symbol><symbol id="V" overflow="visible"><path d="M2.18.693 3.895 4.12q.14.279.285.623.22-.022.66-.022.339 0 1.22.022.053-.054.056-.188.003-.135-.056-.178-.527-.021-.685-.204-.159-.182-.159-.838v-1.95q0-.66.159-.84.158-.18.685-.207.053-.053.056-.185T6.059-.02Q5.199 0 4.839 0q-.778 0-1.283-.021-.054.042-.057.174-.002.132.057.185.462.022.625.21.164.188.164.838v2.497q0 .135-.075.135L2.546.575q-.193-.392-.269-.596Q2.036 0 1.606 0q-.365 0-1.22-.021Q.334.02.33.153.328.285.387.338q.526.022.685.204.158.183.158.844v1.95q0 .66-.158.84-.159.18-.685.201-.054.043-.057.175-.002.132.057.19.838-.02 1.219-.02.779 0 1.289.02.054-.053.054-.187 0-.135-.054-.178-.462-.021-.628-.209Q2.1 3.98 2.1 3.335V.827q.005-.134.08-.134"/></symbol><symbol id="W" overflow="visible"><path d="M2.476.43h1.386q.295 0 .378.131.084.132.084.427v2.39q0 .65-.116.803-.115.153-.556.196-.043.043-.043.175t.043.19q.661-.02 1.101-.02.527 0 1.187.02.043-.053.043-.187 0-.135-.043-.178-.483-.032-.615-.19-.131-.159-.131-.809V1.343q0-.42.059-.64T5.39.43t.234-.092Q5.94.274 5.95.054l.065-1.461q-.145-.043-.285-.011Q5.355 0 4.345 0H1.574Q1.047 0 .387-.021.333.02.33.153.328.285.387.338q.483.033.615.194.131.16.131.81v2.036q0 .661-.115.814-.116.153-.588.185-.043.043-.043.175t.043.19q.617-.02 1.133-.02.57 0 1.123.02.043-.053.043-.187 0-.135-.043-.178-.452-.032-.567-.19-.116-.159-.116-.809V.988q0-.338.089-.448t.384-.11"/></symbol><symbol id="X" overflow="visible"><path d="m3.223 2.562-.87-.23q-1.048-.264-1.042-1.21 0-.295.201-.54.201-.244.588-.244.376 0 .967.49.156.123.156.284zm0-2.036H3.2l-.22-.172q-.596-.461-1.198-.461Q.397-.107.397 1.08q0 .547.5.966.5.42 1.316.629l.945.23q.065.022.065.13 0 1.428-.892 1.428-.365 0-.623-.115Q1.45 4.232 1.45 4q0-.155.022-.214.032-.065.037-.2 0-.123-.15-.249t-.37-.126q-.387 0-.382.397 0 .462.567.841.566.379 1.248.379 1.66 0 1.66-1.859V1.354q0-.231.005-.363.006-.132.038-.287.032-.156.105-.22.072-.065.18-.065.198 0 .408.177.156-.086.188-.3-.42-.409-1.048-.403-.375 0-.529.163-.153.164-.206.47"/></symbol><symbol id="Y" overflow="visible"><path d="M1.29 3.368q.02.66-.124.813-.145.153-.672.196-.054.043-.054.175t.054.19q.387-.02 1.918-.02L3.7 1.567l.037-.107.054.107 1.466 3.153q1.429 0 1.816.022.053-.054.053-.188 0-.135-.053-.178-.527-.043-.666-.19-.14-.148-.13-.809l.028-2.035q0-.66.131-.814.132-.153.658-.19.054-.054.054-.186T7.095-.02Q6.235 0 5.865 0q-.397 0-1.192-.021-.054.042-.054.174t.054.185q.515.043.634.188.118.145.118.817L5.435 4q0 .097-.034.094-.035-.002-.073-.088L3.518.124Q3.464.07 3.4.124L1.805 4.018q-.022.043-.038.064t-.035 0-.019-.064L1.638 1.32q-.021-.628.083-.787.105-.158.567-.196.043-.053.043-.185T2.288-.02Q1.848 0 1.332 0 .827 0 .387-.021.333.02.33.153.328.285.387.338.902.36 1.05.51t.17.811z"/></symbol><symbol id="Z" overflow="visible"><path d="M2.046 3.378V1.343q0-.66.132-.814t.658-.19q.043-.054.046-.186.002-.132-.046-.174Q2.132 0 1.616 0q-.504 0-1.23-.021Q.334.02.33.153.328.285.387.338q.526.043.658.194.131.15.131.81v2.036q0 .661-.131.814-.132.153-.658.185-.054.043-.057.175-.002.132.057.19.505-.01 1.219-.02h1.386l1.23.02.027-.02q.064-.672.14-1.655-.157-.065-.318-.043-.145.585-.424.926-.28.342-.897.342h-.242q-.274 0-.368-.21t-.094-.704"/></symbol><symbol id="aa" overflow="visible"><path d="M3.115 3.556H2.09V1.343q0-.66.172-.82.172-.158.784-.185.054-.053.057-.185.002-.132-.057-.174Q2.277 0 1.627 0 .967 0 .2-.021.156.02.156.153t.043.185Q.816.36.986.521q.169.161.169.822v4.41q0 .66-.17.819-.169.158-.786.18-.043.042-.043.177t.043.188q.88-.022 1.418-.022h2.809q.29 0 .515.043.038 0 .043-.032.119-.634.242-1.595-.145-.054-.344-.054-.134.43-.287.66-.153.232-.494.385t-.9.153h-.494q-.376 0-.497-.132-.12-.131-.12-.572V3.97h1.025q.672 0 .825.132.153.131.174.62.043.054.175.054.131 0 .19-.054-.021-.57-.026-.95 0-.42.026-.967-.053-.054-.187-.054-.135 0-.178.054-.021.295-.067.424t-.263.228q-.218.1-.669.1"/></symbol><symbol id="ab" overflow="visible"><path d="M3.05 4.598V2.363h2.493v2.235zm.087 4.468.945-.601-.387-.172-.687-1.031h5.586l.644.644.903-.902H6.188V4.855h1.761l.602.602.86-.86H6.187V2.364H8.98l.645.645.902-.903h-4.34V.473q0-.73.043-1.29l-.73-.3Q5.543.215 5.543.816v1.29H1.891q-.559 0-1.032-.13l-.386.387h1.933q0 1.977-.043 2.88l.688-.388h2.492v2.149H2.879q-.43-.645-.902-1.182T.687 4.641l-.128.086q.773.816 1.46 1.912.688 1.095 1.118 2.427"/></symbol><symbol id="ac" overflow="visible"><path d="M3.507 2.079q0 .859-.351 1.265-.352.405-.922.405-.692 0-1.396-.263l.37 3.169q.64-.054 1.188-.054.66 0 1.804.118l.08-.043-.176-.746q-.672-.065-1.155-.065-.376 0-1.29.097l-.22-1.837q.452.177 1.08.177.892 0 1.431-.593.54-.594.54-1.432 0-1.047-.655-1.724T2.154-.124q-.505 0-1.031.256Q.596.387.596.704q0 .166.126.287.127.12.288.12.295 0 .564-.354.01-.021.064-.091t.078-.105.078-.088.097-.08Q1.934.364 2 .324t.14-.051q.072-.01.158-.01.505 0 .857.523.351.524.351 1.292"/></symbol><symbol id="ad" overflow="visible"><path d="M3.61 7.95V5.8h4.167v2.15zm0-2.407q0-.988-.044-2.105h4.211v2.105zM5.8.172Q6.96 0 7.37.022q.407.021.407.537v2.62h-4.21q-.13-1.718-.924-2.706-.795-.989-1.87-1.59l-.086.129q.86.687 1.333 1.375.472.687.709 1.611.236.924.257 2.406t-.021 4.233l.644-.43h4.082l.387.473.688-.602-.387-.3V.127q0-.773-1.074-1.116-.043.601-1.504.945z"/></symbol><symbol id="ae" overflow="visible"><path d="M2.965 7.906V4.641h5.113v3.265zm0-3.523V.645h5.113v3.738zm-.645-5.2q.043 2.536.043 4.663T2.32 8.594l.645-.43h5.027l.301.43.73-.559-.343-.258V1.891q0-1.246.043-2.278L8.078-.73V.387H2.965V-.43z"/></symbol><symbol id="af" overflow="visible"><path d="M6.188 4.469 5.8 4.168v-.73h2.191l.645.644.902-.902H5.801V1.676h1.676l.601.601.86-.859H5.8V-.215h2.922l.687.688.945-.946H1.977q-.559 0-1.032-.129L.56-.215h4.64v1.633H3.008l-.387-.086-.344.344H5.2V3.18H2.75Q2.02 1.977.945 1.117l-.129.086q.86 1.031 1.29 1.955t.558 1.526l.86-.559q-.301-.086-.645-.687h2.32q0 .859-.043 1.503zM3.008 6.66V5.414h5.027V6.66zM2.363 8.81l.688-.43h4.941l.387.43.644-.559-.386-.3q0-2.02.043-3.009l-.645-.3v.515H3.008v-.215l-.645-.257q.043.773.043 2.02 0 1.245-.043 2.105m.645-.688V6.918h5.027v1.203z"/></symbol><symbol id="ag" overflow="visible"><path d="M2.707 6.832V5.715h1.762v1.117zm0-1.375V4.168h1.762v1.289zm0-1.547V2.578h1.762V3.91zm-.602 3.18q0 1.074-.042 1.805l.988-.56-.344-.257V7.09h1.762q0 .773-.043 1.805l.988-.516-.344-.258V7.09h.13l.472.473.73-.731H5.07V2.578h.043l.473.473.73-.73H1.633l-.602-.087-.343.344h1.417v4.254H1.72l-.602-.086-.344.344zm.56-4.942.773-.687-.387-.129Q1.89-.043.645-.816l-.086.128q.644.602 1.181 1.29.537.687.924 1.546m1.417-.171q1.031-.559 1.203-.774t.172-.387q0-.214-.129-.43Q5.2.173 5.113.173q-.129 0-.258.344-.214.558-.859 1.375zm3.18 5.843V5.672h2.105V7.82zm0-2.406q0-1.203-.043-2.191h2.148v2.191zM7.82.086q.817-.129 1.182-.15.365-.022.365.45v2.579H7.22Q7.133 1.46 6.424.515q-.71-.945-1.783-1.59l-.086.13q.73.601 1.203 1.31.472.71.687 1.655t.215 3.136-.043 3.309l.645-.387h2.02l.3.43.688-.516-.301-.3V.214q.043-.86-.946-1.203 0 .558-1.203.902z"/></symbol><symbol id="ah" overflow="visible"><path d="M8.25 4.21 8.078-.128h.817l.687.688.945-.946H2.02q-.56 0-1.032-.129l-.386.387h3.05L4.34 4.34H3.05q-.558 0-1.03-.13l-.387.388h2.75l.43 3.093H2.578q-.558 0-1.031-.128l-.387.386H8.38l.601.602.86-.86H5.457l-.473-3.093h2.579l.386.472.688-.558zM7.477-.128l.171 4.469H4.941L4.254-.13z"/></symbol><symbol id="ai" overflow="visible"><path d="M3.717 1.574h-.64q-.891 0-1.557-.167-.843-.21-.843-.601 0-.355.12-.758.121-.402.248-.816.126-.414.126-.757 0-.204-.03-.371t-.104-.435q-.14.446-.274.892Q.505-.591.38-.156.188.532.188.671q0 .688.287 1.056.288.368.884.545.473.14 1.423.236-.338.344-.419.409-.274.214-.553.214-.177 0-.338-.107-.13-.086-.312-.295l-.247.155q.161.403.365.645.339.397.8.397.334 0 .667-.247.274-.204.558-.57.14-.176.414-.6z"/></symbol><symbol id="aj" overflow="visible"><path d="M4.506 2.943 4.302 1.72q-.349.23-.526.43-.3.327-.457.816-.193.596-.193 1.472 0 .311.027.639.005.091.118 1.069-.258-.049-.381-.07Q2.492 6 2.24 6q-.838 0-1.096.171-.204.135-.204.554 0 .177.016.531t.016.537l.194.022q.128-.295.247-.392.247-.199.816-.199.424 0 .956.102.118.022.575.124-.092-.554-.13-.827-.064-.468-.064-.817 0-.865.15-1.455.119-.468.366-.854.086-.135.424-.554"/></symbol><symbol id="ak" overflow="visible"><path d="M3.787 3.996q-.15-.467-.226-.757-.075-.29-.177-.833-.457.258-.715.44-.171.124-.628.49.113.488.207.805t.276.827q.301-.263.607-.5.204-.155.656-.472"/></symbol><symbol id="al" overflow="visible"><path d="M4.302 7.02q0-.59-.28-.945-.305-.387-.864-.387-.07 0-.37.043.204-.43.29-.682.145-.424.22-.994t.075-1.525q0-.167-.01-.545l-.011-.411H3.19q-.408 1.735-.542 2.191-.258.892-.61 1.555-.351.663-1.055 1.544l.354 1.085q.36-.51.64-.757.51-.451 1.08-.451.6 0 .832.403.129.22.198.794l.172.011q.022-.188.033-.438.01-.25.01-.491"/></symbol><symbol id="am" overflow="visible"><path d="M2.648 2.24q0-.285-.215-.51t-.553-.226q-.414 0-.688.387-.274.386-.274.961 0 .8.473 1.402.231.295.693.623l.177-.295q-.317-.29-.483-.505-.296-.382-.296-.672t.583-.419.583-.746"/></symbol><symbol id="an" overflow="visible"><path d="m4.372 2.659-.338-1.085q-.484 0-.93.07-.59.09-.95.273-.44.22-.44.548 0 .306.187.629.161.274.495.628.177.188.67.655-.456.172-.912.35-.543.241-.543.488 0 .409.398.946.306.413.891.94.409.365.908.746l-.166-1.031q-.597-.22-.795-.317-.473-.23-.473-.424 0-.172.403-.35.376-.144.757-.284.408-.167.408-.306 0-.156-.365-.543-.338-.354-.677-.703-.365-.414-.365-.634 0-.258.736-.43.478-.113 1.101-.166"/></symbol><symbol id="ao" overflow="visible"><path d="M4.753 1.896q0-.886-.655-1.762-.73-.977-1.686-.977-.355 0-.73.08-.275.06-.715.204-.35.124-.698.242l.09.188.632-.148q.33-.077.593-.077.656 0 1.241.333.457.263.913.762.231.253.656.822-.726 0-1.085.23-.409.264-.409.866 0 .553.258 1.026.301.547.763.547.467 0 .671-.542.161-.424.161-1.182zm-.338.585q-.118.516-.285.715-.145.172-.354.172-.15 0-.26-.1t-.11-.25q0-.263.236-.4t.773-.137"/></symbol><symbol id="ap" overflow="visible"><path d="M2.686 1.574H-.376v.934h2.67q0 .634-.15.967-.103.231-.506.666l.42.876q.386-.49.483-.763.145-.414.145-1.37zM2.637.51 2.24-.269l-.881.452.408.778zM1.413.01 1.01-.756l-.886.456.418.774z"/></symbol><symbol id="aq" overflow="visible"><path d="M2.524 1.574h-.752q-.365 0-.585.295-.193.258-.293.768T.741 3.894L.674 5.14q-.035.64-.091.97-.057.33-.153.54-.118.257-.328.45l.66 1.043q.21-.645.296-1.542.054-.559.108-2.643.096-.956.279-1.224.15-.226.327-.226h.752z"/></symbol><symbol id="ar" overflow="visible"><path d="M4.334 1.574h-.558q-.36 0-.811.16-.521.189-.919.516-.311-.38-.636-.529-.325-.147-.948-.147h-.838v.934h.822q.489 0 .87.247.295.194.537.543.328.473.806.822.43.311.79.397.37-.564.59-1.015.295-.612.295-.994zm-.617 1.058q-.07.311-.215.612-.124.253-.328.521-.257-.064-.435-.242-.118-.112-.279-.38.193-.21.545-.377.352-.166.663-.204z"/></symbol><symbol id="as" overflow="visible"><path d="M5.178 7.407q0-.672-.255-1.026-.256-.355-.787-.355-.306 0-.532.097t-.333.295q-.183-.3-.462-.453-.28-.153-.671-.153.198-.393.284-.602.156-.381.24-.811t.083-1.037q0-.338-.03-.652t-.158-1.136h-.215q0 1.181-.15 1.939-.151.757-.516 1.471-.28.543-.983 1.58l.392 1.272q.28-.461.602-.698.36-.263.8-.263.456 0 .714.312.22.268.306.762h.172q.043-.494.194-.693.15-.198.43-.198.563 0 .67.891h.178q0-.118.013-.314.014-.196.014-.228"/></symbol><symbol id="at" overflow="visible"><path d="M3.599 3.819q0-.484-.076-1.123-.016-.155-.15-1.122H3.19q0 .129.022.746 0 1.139-.312 2.127-.241.768-.666 1.445-.214.344-.612.827l.516 1.16q.424-.51.682-.945.365-.618.553-1.305.226-.816.226-1.81"/></symbol><symbol id="au" overflow="visible"><path d="M4.125 1.574h-.768q-.387 0-.682.66-.22.495-.355 1.273-.16-.3-.408-.467-.247-.166-.52-.166-.619 0-1.03.083-.41.083-.41.212 0 .462.601 1.023.602.561 1.504.98-.01.043-.046.226-.034.183-.034.226 0 .182.123.408.102.182.269.376.053-.333.11-.645.056-.311.131-.644l.161-.924q.135-.763.242-1.128.167-.559.344-.559h.768zm-1.875 2.4-.102.586q-.467-.166-.735-.346-.269-.18-.452-.476.113-.048.264-.075.15-.027.413-.027.322 0 .612.339m.505 4.024-.397-.78-.88.452.407.779zm-1.224-.5-.403-.768-.886.457.419.773z"/></symbol><symbol id="av" overflow="visible"><path d="M4.334 1.574h-.79q-.348 0-.708.166-.43.199-.623.553-.36-.322-.822-.5-.564-.22-1.284-.22h-.483v.935h.483q.452 0 .838.097.44.113.865.36l-.226.29q-.171.204-.386.204-.097 0-.172-.035t-.167-.153H.747v.317q0 .59.311.81.285.2.988.2.607 0 .989-.161.5-.21.5-.645 0-.231-.2-.478-.145-.183-.531-.505.086-.129.33-.215t.41-.086h.79z"/></symbol><symbol id="aw" overflow="visible"><path d="M5.828 1.574H-.376v.934h4.377q-.547.425-.923.66-.468.296-.854.43-.435.151-.881.151-.274 0-.553-.038.155.398.408.64.365.349.924.349.547 0 1.294-.537.37-.269 1.209-1.02.65-.586.88-.635h.323zM3.104.414l-.418-.78-.87.452.397.784z"/></symbol><symbol id="ax" overflow="visible"><path d="M2.277 1.574H-.376v.934h2.11l-.638 4.555-.28.134q0 .37.065.696.064.325.193.63l.08-.058q0-.312.35-.467.268-.108.542-.215 0-.269-.043-.575t-.102-.457l-.257.086.633-4.21z"/></symbol><symbol id="ay" overflow="visible"><path d="M1.815 2.943q0-.43-.155-.832-.08-.215-.35-.682l-.096.053q.016.156.03.36t.013.274q0 .559-.089 1.56Q1.08 4.679.956 5.77q-.075.66-.166 1.348.107.236.244.51l.26.516q.086-.613.218-1.676.132-1.064.207-1.918.096-1.063.096-1.606"/></symbol><symbol id="az" overflow="visible"><path d="M1.923 3.642q-.177-.22-.172-.484V1.155q0-.29.046-.398.045-.107.217-.263.258-.23.779-.23.44 0 .76.182t.483.494.237.642.072.706q0 .902-.378 1.47-.38.566-.932.566-.231 0-.562-.204-.33-.204-.55-.478m-.21.408q.011-.167.124-.049.736.828 1.51.828.826 0 1.385-.672.559-.671.559-1.574 0-1.289-.812-2.078-.65-.618-1.622-.612-.537 0-.956.166-.086.043-.118.032T1.751-.02v-1.187q0-.661.148-.817.147-.156.754-.188.054-.054.054-.185 0-.132-.054-.175-.725.022-1.332.022-.462 0-1.235-.022-.043.043-.043.175 0 .131.043.185.516.022.655.183.14.16.14.822v4.694q0 .462-.126.583-.127.12-.588.163-.065.188-.022.312.816.107 1.354.317.085 0 .128-.086.054-.129.086-.725"/></symbol><symbol id="aA" overflow="visible"><path d="M.473 4.721h.505q0 .42-.006.693-.005.274-.01.357l-.011.137q-.006.054-.006.086 0 .08.242.15.193.054.376.156.183.097.242.102.086 0 .086-.096-.043-.44-.043-1.16V4.72h1.32q.087 0 .087-.07v-.22q0-.145-.263-.14H1.848V1.51q0-.537.078-.776.077-.239.287-.239.505 0 .902.312.167-.011.194-.188-.65-.725-1.483-.725-.848 0-.848 1.085v3.314h-.65q-.054 0-.054.064v.145q0 .22.199.22"/></symbol><symbol id="aB" overflow="visible"><path d="M.451 2.256q0 1.09.607 1.805.655.768 1.724.768.79 0 1.335-.39t.76-.929.215-1.157q0-1.15-.715-1.848-.628-.618-1.616-.612-1.101 0-1.706.714-.604.714-.604 1.649m2.165 2.186q-1.22 0-1.22-1.934 0-.354.084-.717.083-.362.247-.714T2.199.5q.31-.226.718-.226.483 0 .856.397.373.398.373 1.332 0 1.177-.408 1.808-.408.63-1.122.63"/></symbol><symbol id="aC" overflow="visible"><path d="M.945 1.343V6.15q0 .354-.016.529t-.137.258-.188.088l-.362.027q-.124.124-.065.328.978.075 1.536.3.145 0 .145-.112-.043-.44-.043-1.155V2.578q.355.048.747.339.397.295.88.902.055.064.09.137.034.072.056.169t-.078.17-.32.082q-.043.043-.043.175t.043.19q.505-.02 1.08-.02.451 0 .956.02.054-.053.054-.187 0-.135-.054-.178-.768-.075-1.155-.483l-.967-.999q-.042-.043-.048-.113 0-.053.08-.156l1.45-1.82q.2-.253.404-.336t.542-.132q.054-.053.054-.185T5.532-.02Q5.092 0 4.63 0q-.242 0-.682-.021-.043 0-.043.053-.022.177-.462.774l-.8 1.074q-.178.236-.355.36-.145.048-.473.059v-.956q0-.65.105-.809.105-.158.465-.196.053-.053.056-.185T2.385-.02Q1.88 0 1.385 0 .936 0 .21-.021.156.02.156.153t.053.185q.484.033.61.188.126.156.126.817"/></symbol><symbol id="aD" overflow="visible"><path d="M.94 6.865q.075-.015.222-.06.146-.045.308-.068.162-.022.38-.022h2.97q.203 0 .572.007l.676.015.324.008q.188 0 .184-.109T6.3 6.068Q4.106 2.451 2.7.647l.007-.045h1.481q.587 0 .895.229.309.23.617.86l.21.452q.444 0 .617-.098-.173-1.158-.489-2.09L.617 0Q.263 0 .263.188q0 .12.136.308 1.894 2.55 3.722 5.587l-.023.03-1.571-.045q-.85-.03-1.249-1.481-.353-.075-.661.045.218 1.293.233 2.143 0 .09.09.09"/></symbol><symbol id="aE" overflow="visible"><path d="M4 6.189q-1.278 0-1.278-2.662 0-1.06.455-2.046T4.482.496q.511 0 .894.545.384.546.384 1.794 0 1.571-.481 2.463-.482.89-1.279.89m-3.429-3q0 1.54.843 2.51.992 1.144 2.835 1.136 1.676 0 2.673-.985.996-.985.996-2.526 0-1.662-1.053-2.602-.985-.88-2.632-.872-1.571 0-2.616.92Q.57 1.693.57 3.189"/></symbol><symbol id="aF" overflow="visible"><path d="M.556 3.895q0 2.015 1 3.91t2.602 3.286l.429-.526q-2.263-2.647-2.263-6.67 0-4.143 2.263-6.685l-.459-.489q-.985.85-1.71 1.85-.726 1-1.064 1.767t-.538 1.61-.23 1.218-.03.73"/></symbol><symbol id="aG" overflow="visible"><path d="M2.82 1.128Q2.73.993 2.71.88q-.018-.113.023-.173.042-.06.14-.105.097-.046.169-.068.071-.023.191-.038.06-.06.06-.263t-.06-.263Q2.617 0 1.542 0 .88 0 .263-.03.188.03.188.23q0 .199.075.266 1.06.136 1.527.722L3.203 2.97q.106.136.045.233L1.88 5.158q-.384.557-.67.794-.285.237-.766.237-.076.06-.076.263t.076.263q.616-.03 1.94-.03 1.541 0 2.158.03.075-.06.075-.263t-.075-.263q-.474-.046-.568-.136t.11-.511l.683-1.166q.098-.165.196-.03l.827 1.18q.233.324.14.478-.095.154-.508.185-.06.06-.06.263t.06.263q.616-.03 1.541-.03.677 0 1.293.03.06-.06.06-.263t-.06-.263q-.924-.106-1.466-.752L5.422 3.775q-.06-.09.03-.233l1.353-2.016q.602-.88 1.587-1.03.075-.06.075-.263T8.392-.03Q7.775 0 6.332 0 4.85 0 4.232-.03q-.075.06-.075.26 0 .199.075.266.43.06.516.143t-.08.466l-.744 1.399q-.052.105-.15-.038z"/></symbol><symbol id="aH" overflow="visible"><path d="M1.466 4.76q0 .647-.18.83-.18.185-.827.245-.09.293-.03.496 1.308.173 2.556.504.339 0 .354-.263.045-.338.082-.767h.09q.444.399.978.714.534.316.842.316 1.339 0 2.106-.767.428-.428.677-1.094.248-.665.248-1.327 0-1.707-1.057-2.752T4.497-.15q-.527 0-1.03.255v-1.797q0-.925.184-1.132t.92-.259q.076-.06.076-.26 0-.199-.075-.259-1.324.03-2.106.03-.82 0-2.113-.03-.075.06-.075.26 0 .199.075.259.737.06.925.263t.188 1.128zm2-3.76q.474-.511.94-.504.925 0 1.361.809.437.808.437 1.928 0 1.249-.414 1.91-.414.662-.955.662-.293 0-.677-.162-.383-.161-.699-.447.008-.128.008-.248z"/></symbol><symbol id="aI" overflow="visible"><path d="M3.512 4.128V1.88q0-.925.184-1.132t.921-.252q.06-.06.064-.263T4.617-.03Q3.294 0 2.512 0q-.82 0-2.113-.03-.06.06-.06.26 0 .199.06.266.736.06.924.26.188.199.188 1.124v2.88q0 .647-.184.838-.184.192-.816.252-.09.293-.037.481.895.09 2.556.504.324 0 .361-.263.076-.752.106-1.21h.06q1.03 1.48 1.835 1.473.398 0 .706-.274.309-.275.309-.583 0-.474-.271-.797-.27-.323-.617-.323-.503 0-.714.255-.24.294-.436.294-.27 0-.489-.264-.128-.15-.192-.252-.064-.101-.12-.304t-.056-.459"/></symbol><symbol id="aJ" overflow="visible"><path d="M1.542 1.955V8.7q0 .767-.155.933-.154.165-.89.225-.121.218-.053.489 1.91.075 2.895.406.248 0 .248-.203-.045-.572-.045-1.572V1.955q0-.925.222-1.177.221-.252.966-.282.075-.06.075-.263T4.73-.03Q3.406 0 2.542 0 1.647 0 .353-.03.278.03.278.23q0 .199.075.266.737.03.963.282t.226 1.177"/></symbol><symbol id="aK" overflow="visible"><path d="M4.294 3.865q0-2.015-1-3.91T.692-3.324l-.429.52Q2.527-.159 2.527 3.864q0 4.143-2.264 6.685l.459.489q.985-.85 1.71-1.846.726-.997 1.065-1.767.338-.771.537-1.61.2-.838.23-1.218t.03-.733"/></symbol><symbol id="aL" overflow="visible"><path d="M4.377.999q-.386-.64-.813-.873t-.98-.233q-1.021 0-1.598.652-.578.653-.578 1.743 0 1.112.693 1.826.693.715 1.563.715.779 0 1.23-.29t.451-.752q0-.231-.172-.36-.172-.13-.365-.13-.376 0-.419.398-.021.242-.072.379t-.226.263-.486.126q-.548 0-.9-.52-.351-.522-.351-1.413 0-.946.43-1.523Q2.212.43 2.824.43q.758 0 1.321.725.178-.022.231-.156"/></symbol><symbol id="aM" overflow="visible"><path d="M5.172 1.343q0-.66.132-.814t.658-.19q.043-.054.043-.186T5.962-.02Q5.146 0 4.74 0T3.566-.021q-.043.042-.045.174t.045.185q.484.033.61.188.126.156.126.817v2.164q0 .43-.088.607-.089.178-.341.178H1.9v-2.95q0-.66.132-.813t.685-.19Q2.77.284 2.77.152T2.718-.02Q1.993 0 1.472 0 1.063 0 .317-.021.263.02.263.153t.054.185Q.79.371.913.526q.124.156.124.817v2.949H.295q-.053 0-.053.064v.145q0 .22.252.22h.543v.161q0 1.408.558 2.068.629.725 1.563.73.779 0 1.367-.354t.588-.86q0-.176-.142-.313t-.33-.137q-.274 0-.438.16-.164.162-.245.554-.107.57-.934.575-.537 0-.83-.567t-.293-1.394v-.623h2.17q.682 0 1.032.14.107 0 .112-.065-.043-.703-.043-1.133z"/></symbol><symbol id="aN" overflow="visible"><path d="M4.34 6.94q.15-.758.199-1.419-.135-.102-.36-.064-.097.312-.202.532-.104.22-.287.438-.183.217-.47.327t-.669.11q-.478 0-.84-.381-.363-.381-.363-.849 0-.263.13-.5.128-.236.29-.386.16-.15.44-.306.279-.156.445-.223.167-.067.446-.175.381-.145.666-.3.285-.156.559-.392t.416-.572.142-.755q0-.521-.279-1-.28-.477-.752-.773-.58-.36-1.359-.36-.52 0-1.093.127Q.827.145.516.145q-.167.693-.22 1.67.171.092.36.033Q.998.285 2.582.285q.661 0 1.018.346.357.347.357 1.007 0 .312-.096.564-.097.253-.22.406-.124.153-.36.295-.237.142-.382.207-.145.064-.419.166-.413.156-.717.32-.303.164-.598.408-.296.245-.452.58-.155.336-.155.75 0 .848.615 1.377.615.53 1.48.53.628 0 1.082-.14.453-.14.604-.162"/></symbol><symbol id="aO" overflow="visible"><path d="M3.851 1.343q0-.66.185-.82.186-.158.879-.185.053-.053.056-.185T4.915-.02Q3.813 0 3.389 0q-.462 0-1.541-.021-.043.042-.043.174t.043.185q.693.022.88.183.189.161.189.822v4.232q0 .537-.116.814-.115.277-.405.277h-.538q-.569 0-.934-.264Q.559 6.14.408 5.5q-.241 0-.376.054.22.945.274 1.595 0 .032.048.032 1.112-.086 2.563-.086h.945q1.46 0 2.465.086.032 0 .032-.032.011-.725.14-1.563-.124-.054-.37-.054-.135.618-.508.876t-1.023.258h-.242q-.285 0-.395-.28t-.11-.843z"/></symbol><symbol id="aP" overflow="visible"><path d="M1.87 3.937q.01-.145.133 0 .79.892 1.67.892.42 0 .72-.229.301-.228.382-.577.027-.107.118-.005.768.81 1.815.81.672 0 .903-.45.23-.452.23-1.3V1.343q0-.66.116-.814t.588-.19q.043-.054.043-.186T8.545-.02Q7.928 0 7.412 0q-.57 0-1.122-.021-.043.042-.043.174t.043.185q.45.033.566.194.116.16.116.81v1.934q0 .527-.164.755t-.492.228q-.79 0-1.455-.73.01-.134.01-.44V1.342q0-.66.11-.814t.54-.19q.043-.054.043-.18 0-.127-.043-.18Q4.974 0 4.441 0 3.874 0 3.32-.021q-.043.053-.043.185 0 .131.043.174.462.033.572.188.11.156.11.817v1.912q0 .999-.725 1.004-.526 0-1.187-.65-.188-.198-.188-.462V1.343q0-.457.065-.655.064-.2.182-.258.119-.06.435-.092.049-.048.049-.18 0-.131-.049-.18Q1.923 0 1.472 0 .945 0 .285-.021.242.02.242.153t.043.185q.483.033.617.194.135.16.135.81v2.144q0 .462-.13.583-.128.12-.59.163-.065.188-.022.312.817.107 1.354.317.086 0 .134-.086.054-.124.086-.838"/></symbol><symbol id="aQ" overflow="visible"><path d="M2.981 2.455H.607q-.167 0-.167.21 0 .155.09.303.088.147.184.147h2.412q.156 0 .15-.22 0-.107-.099-.274-.1-.166-.196-.166"/></symbol><symbol id="aR" overflow="visible"><path d="M1.87 5.887q-.21 0-.358-.051t-.32-.272q-.171-.22-.279-.633-.166-.022-.354.032.21 1.375.22 1.756 0 .032.048.032.043-.01.185-.08t.363-.07h2.267q.44 0 .848.118l.172-.129Q3.475 3.685 2.202-.107L1.45-.145l-.086.08q.817 1.816 2.476 5.952z"/></symbol><symbol id="aS" overflow="visible"><path d="M6.61.677q.752 0 1.29.556.537.557.77 1.49.414 0 .602-.076-.188-1.88-.414-2.722 0-.045-.068-.045Q7.234 0 5.204 0H.602Q.308 0 .308.233q0 .173.12.354l5.76 8.331q.249.354-.03.354h-2.94q-1.496 0-1.97-1.94-.398 0-.601.075.278 1.203.398 2.601 0 .046.06.046 1.557-.12 3.595-.12h3.09q.248 0 .594.014t.421.015q.264 0 .264-.15 0-.218-.339-.714L3.28 1.105Q3.106.887 3.147.782t.38-.105z"/></symbol><symbol id="aT" overflow="visible"><path d="M4.146 7.24q.538 0 .951-.1.414-.098.76-.23t.578-.17q.209-.934.252-1.691-.188-.075-.36-.065-.123.42-.266.704-.142.285-.4.572t-.677.435-.993.148q-1 0-1.765-.924t-.765-2.32q0-.758.293-1.502.292-.743.918-1.278.626-.534 1.453-.534 1.268 0 1.703.419v1.68q0 .307-.191.398-.19.092-.706.135-.043.053-.046.196-.003.142.046.196.966-.022 1.359-.022.45 0 .982.022.054-.054.054-.196t-.054-.196q-.263-.022-.384-.137-.12-.116-.12-.395V1.112q0-.167.171-.306-1.068-.913-3.066-.913-1.553 0-2.509.988T.408 3.378q0 1.155.556 2.058t1.402 1.353 1.78.451"/></symbol><symbol id="aU" overflow="visible"><path d="M2.1 6.048v-2.02h.817q1.562 0 1.562 1.263 0 .757-.43 1.103-.429.347-.993.347-.483 0-.674-.06-.19-.058-.236-.177-.046-.118-.046-.456m0-2.396V1.3q0-.527.183-.744.182-.218.73-.218 1.155 0 1.569.392.413.393.413 1.085 0 .806-.534 1.322-.535.515-1.604.515zm-.473 3.443q.2 0 .693.011.494.01.682.01 2.364 0 2.364-1.691 0-.43-.301-.827-.3-.398-.741-.618v-.022q.768-.22 1.23-.703.462-.484.462-1.23 0-.387-.132-.728t-.427-.65-.862-.489-1.35-.18q-.527 0-1 .011T1.638 0Q1.068 0 .21-.021.156.02.156.153t.053.185Q.827.36.996.521t.17.822v4.41q0 .66-.17.819-.169.158-.787.18-.053.042-.053.177t.053.188q.86-.022 1.418-.022"/></symbol><symbol id="aV" overflow="visible"><path d="M3.088 3.97q.672 0 .828.13.155.132.177.621.043.054.174.054.132 0 .186-.054-.022-.526-.022-.95 0-.398.022-.967-.054-.054-.186-.054-.131 0-.174.054-.022.295-.067.424t-.266.228q-.22.1-.672.1H2.09V1.123q0-.387.137-.54T2.707.43H3.98q1.047 0 1.445 1.44.199.042.381-.055-.134-.87-.403-1.836Q4.523 0 3.991 0H1.627Q1.01 0 .2-.021.156.02.156.153t.043.185Q.816.36.986.521q.169.161.169.822v4.41q0 .66-.17.819-.169.158-.786.18-.043.042-.043.177t.043.188q.88-.022 1.418-.022H4.42q.285 0 .543.043.043 0 .043-.032.086-.376.242-1.595-.178-.086-.366-.054-.21.66-.44.93-.231.268-.8.268h-.828q-.43 0-.577-.159-.148-.158-.148-.545V3.97z"/></symbol></defs></svg>